<?xml version="1.0" encoding="UTF-8" standalone="no"?>
<!DOCTYPE svg PUBLIC "-//W3C//DTD SVG 1.1//EN" "http://www.w3.org/Graphics/SVG/1.1/DTD/svg11.dtd">
<svg width="100%" height="100%" viewBox="0 0 4000 4000" version="1.1" xmlns="http://www.w3.org/2000/svg" xmlns:xlink="http://www.w3.org/1999/xlink" xml:space="preserve" xmlns:serif="http://www.serif.com/" style="fill-rule:evenodd;clip-rule:evenodd;stroke-linejoin:round;stroke-miterlimit:2;">
    <g transform="matrix(1.02803,0,0,1.02831,-56.0666,-57.1734)">
        <path d="M1426.58,846.257C1376.29,701.092 1326.28,559.237 1302.46,501.753C1238.56,347.565 1109.11,397.606 1067.61,297.459C1022.09,187.618 1138.71,109.442 1205.41,80.774C1269.38,53.281 1407.8,25.154 1451.96,131.718C1496.12,238.282 1369.47,292.29 1433.01,448.393C1448.39,486.182 1518.06,630.315 1590.68,779.777C1704.17,742.675 1824.54,720.839 1949.36,716.7C1927.9,635.626 1851.84,623.144 1852.34,553.09C1852.97,463.266 1956.36,443.129 2010.82,442.778C2063.04,442.442 2166.88,463.544 2166.27,550.689C2165.74,625.373 2089.82,636.322 2067.06,718.067C2185.59,724.765 2299.88,747.435 2407.76,783.943C2475.88,643.777 2542.41,505.028 2566.57,446.716C2630.47,292.528 2503.54,236.423 2545.04,136.276C2590.56,26.435 2728.32,53.581 2795.77,80.451C2860.45,106.222 2978.22,184.163 2934.06,290.727C2889.9,397.291 2762.14,345.967 2696.64,501.258C2680.6,539.286 2626.85,693.52 2571.83,852.431C2676.37,904.815 2772.85,970.942 2858.9,1048.43C2902.61,974.262 2855.16,911.141 2904.87,860.751C2967.86,796.905 3055.88,854.939 3095.09,892.84C3132.7,929.189 3192.33,1017.05 3131.22,1078.99C3078.45,1132.48 3015.93,1086.01 2941.99,1130.28C3024.39,1219.06 3094.48,1319.39 3149.54,1428.53C3296.48,1377.69 3440.95,1326.85 3499.1,1302.77C3653.36,1238.9 3603.3,1109.52 3703.49,1068.04C3813.38,1022.54 3891.6,1139.1 3920.28,1205.77C3947.78,1269.71 3975.92,1408.06 3869.31,1452.2C3762.7,1496.34 3708.66,1369.75 3552.49,1433.27C3514.46,1448.73 3368.78,1519.1 3218.37,1592.12C3258.25,1708.87 3281.88,1833.08 3286.57,1962.07C3366.44,1940.21 3378.97,1864.08 3448.34,1864.57C3537.55,1865.2 3557.54,1969.31 3557.89,2024.14C3558.22,2076.72 3537.25,2181.28 3450.71,2180.67C3376.85,2180.15 3365.76,2104.35 3285.51,2081.07C3279.26,2195.85 3258.02,2306.65 3223.72,2411.57C3361.16,2478.26 3495.7,2542.64 3552.9,2566.32C3707.16,2630.19 3763.29,2503.32 3863.48,2544.8C3973.37,2590.3 3946.21,2728 3919.33,2795.41C3893.55,2860.07 3815.57,2977.78 3708.96,2933.64C3602.34,2889.5 3653.69,2761.8 3498.33,2696.33C3461.12,2680.65 3312.72,2628.92 3157.47,2575.2C3103.94,2685.06 3035.28,2786.26 2954.22,2876.08C3024.98,2912.77 3085.64,2869.51 3134.07,2917.6C3197.48,2980.55 3139.31,3069.07 3101.38,3108.55C3065.01,3146.42 2977.22,3206.56 2915.7,3145.49C2864.11,3094.27 2906.52,3033.49 2868.86,2962.23C2781.63,3042.43 2683.37,3110.82 2576.68,3164.84C2625.77,3306.44 2674.05,3443.16 2697.33,3499.33C2761.22,3653.52 2890.67,3603.48 2932.17,3703.63C2977.69,3813.47 2861.07,3891.64 2794.37,3920.31C2730.4,3947.81 2591.99,3975.93 2547.83,3869.37C2503.66,3762.81 2630.31,3708.8 2566.77,3552.69C2551.8,3515.91 2485.4,3378.38 2414.93,3233.33C2299.96,3272.99 2177.63,3296.91 2050.57,3302.49C2074.09,3378.2 2146.34,3391.79 2145.87,3460.07C2145.24,3549.89 2041.84,3570.03 1987.38,3570.38C1935.16,3570.72 1831.32,3549.62 1831.93,3462.47C1832.44,3390 1903.95,3377.54 1928.98,3302.19C1807.76,3296.29 1690.89,3273.68 1580.6,3236.62C1516.24,3369.24 1455.22,3496.89 1432.3,3552.19C1368.41,3706.38 1495.34,3762.49 1453.84,3862.63C1408.32,3972.47 1270.55,3945.33 1203.11,3918.46C1138.43,3892.69 1020.65,3814.74 1064.82,3708.18C1108.98,3601.62 1236.74,3652.94 1302.24,3497.65C1317.49,3461.49 1366.85,3320.22 1418.99,3169.75C1313.63,3117.51 1216.37,3051.34 1129.63,2973.65C1099.19,3041.61 1137.58,3099.82 1091.12,3146.91C1028.14,3210.75 940.119,3152.72 900.904,3114.82C863.294,3078.47 803.668,2990.61 864.774,2928.67C914.118,2878.65 971.978,2916.03 1039.74,2884.92C956.337,2794.2 885.718,2691.58 830.744,2579.91C690.758,2628.43 556.449,2675.85 500.898,2698.85C346.639,2762.71 396.703,2892.1 296.51,2933.58C186.617,2979.08 108.405,2862.51 79.724,2795.85C52.218,2731.91 24.079,2593.56 130.692,2549.41C237.305,2505.28 291.338,2631.87 447.513,2568.35C484.073,2553.49 620.127,2487.88 764.273,2417.93C727.266,2306.68 704.973,2188.78 699.689,2066.5C630.234,2092.22 615.564,2160.66 549.782,2160.2C460.574,2159.57 440.581,2055.45 440.236,2000.63C439.905,1948.04 460.867,1843.48 547.413,1844.09C617.335,1844.59 631.001,1912.55 700.352,1939.54C706.999,1815.61 731.132,1696.28 770.329,1583.99C639.648,1520.65 514.729,1461.04 460.177,1438.46C305.918,1374.59 249.786,1501.46 149.593,1459.98C39.701,1414.49 66.859,1276.78 93.742,1209.37C119.524,1144.72 197.502,1027 304.115,1071.14C410.729,1115.28 359.381,1242.98 514.744,1308.45C550.605,1323.57 689.76,1372.16 838.77,1423.76C891.379,1320.55 957.45,1225.31 1034.66,1140.36C963.471,1102.72 902.459,1146.63 853.79,1098.31C790.383,1035.36 848.556,946.835 886.481,907.352C922.852,869.487 1010.65,809.342 1072.16,870.417C1124.08,921.96 1080.81,983.187 1119.73,1055.04C1211,971.592 1314.25,901.033 1426.58,846.257Z" style="fill:rgb(232,40,40);"/>
    </g>
    <g transform="matrix(0.848036,0,0,0.84353,298.454,319.741)">
        <g id="Gruppe" transform="matrix(325.817,0,0,325.817,-903.437,-313.789)">
            <g transform="matrix(1,0,0,1,0.483354,0)">
                <path d="M13.4,5.637C13.4,6.877 12.397,7.88 11.156,7.88C9.921,7.88 8.916,6.877 8.916,5.637C8.916,4.401 9.921,3.395 11.156,3.395C12.397,3.395 13.4,4.4 13.4,5.637Z" style="fill:white;fill-rule:nonzero;"/>
                <path d="M13.744,5.637C13.744,4.21 12.588,3.049 11.156,3.049C9.731,3.049 8.572,4.211 8.572,5.637C8.572,7.068 9.731,8.226 11.156,8.226C12.588,8.226 13.744,7.068 13.744,5.637ZM13.4,5.637C13.4,6.877 12.397,7.88 11.156,7.88C9.921,7.88 8.916,6.877 8.916,5.637C8.916,4.401 9.921,3.395 11.156,3.395C12.397,3.395 13.4,4.4 13.4,5.637Z" style="fill:rgb(167,40,40);"/>
            </g>
            <g transform="matrix(1,0,0,1,0.483354,0)">
                <path d="M12.263,5.637C12.263,6.249 11.77,6.743 11.156,6.743C10.549,6.743 10.053,6.249 10.053,5.637C10.053,5.027 10.548,4.533 11.156,4.533C11.77,4.533 12.263,5.027 12.263,5.637Z" style="fill:rgb(26,23,27);fill-rule:nonzero;"/>
            </g>
            <g transform="matrix(0.00432033,0,0,0.00432033,6.14321,-2.22725)">
                <circle cx="1272.62" cy="1730.96" r="89.449" style="fill:white;"/>
            </g>
            <g transform="matrix(1,0,0,1,-0.205519,0)">
                <path d="M8.62,5.637C8.62,6.877 7.617,7.88 6.376,7.88C5.141,7.88 4.136,6.877 4.136,5.637C4.136,4.401 5.141,3.395 6.376,3.395C7.617,3.395 8.62,4.4 8.62,5.637Z" style="fill:white;fill-rule:nonzero;"/>
                <path d="M8.964,5.637C8.964,4.21 7.808,3.049 6.376,3.049C4.951,3.049 3.792,4.211 3.792,5.637C3.792,7.068 4.951,8.226 6.376,8.226C7.808,8.226 8.964,7.068 8.964,5.637ZM8.62,5.637C8.62,6.877 7.617,7.88 6.376,7.88C5.141,7.88 4.136,6.877 4.136,5.637C4.136,4.401 5.141,3.395 6.376,3.395C7.617,3.395 8.62,4.4 8.62,5.637Z" style="fill:rgb(167,40,40);"/>
            </g>
            <g transform="matrix(1,0,0,1,-0.205519,0)">
                <path d="M7.483,5.637C7.483,6.249 6.99,6.743 6.376,6.743C5.769,6.743 5.273,6.249 5.273,5.637C5.273,5.027 5.768,4.533 6.376,4.533C6.99,4.533 7.483,5.027 7.483,5.637Z" style="fill:rgb(26,23,27);fill-rule:nonzero;"/>
            </g>
            <g transform="matrix(0.00432033,0,0,0.00432033,0.674334,-2.22725)">
                <circle cx="1272.62" cy="1730.96" r="89.449" style="fill:white;"/>
            </g>
        </g>
        <g transform="matrix(1.01238,0,0,1.01238,-28.6309,-33.594)">
            <g transform="matrix(1,0,0,1.05796,190.594,-162.867)">
                <path d="M2794.54,2600.28C2794.54,2496.85 2716.29,2412.87 2619.91,2412.87C2063.28,2524.02 1523.05,2523.26 998.899,2412.87C902.521,2412.87 824.274,2496.85 824.274,2600.28L824.274,2975.1C824.274,3078.53 902.241,3135.88 998.899,3162.5C1544.66,3312.81 2084.92,3310.49 2619.91,3162.5C2723.39,3133.88 2794.54,3078.53 2794.54,2975.1L2794.54,2600.28Z" style="fill:rgb(162,229,228);"/>
            </g>
            <g transform="matrix(0.811016,0.209937,-0.379331,1.46541,1004.99,-1373.7)">
                <path d="M1238.74,2453.16L499.692,2453.22C499.692,2453.22 569.809,2523.74 589.437,2543.47C592.552,2546.61 598.484,2548.55 604.916,2548.55C687.944,2548.51 1238.74,2548.27 1238.74,2548.27L1238.74,2453.16Z" style="fill:rgb(162,229,228);"/>
            </g>
            <g transform="matrix(0.793267,-0.205153,0.379003,1.4655,1613.19,-1014.49)">
                <path d="M1232.65,2454.77L485.241,2453.16L485.241,2548.27L1139.44,2546.97L1232.65,2454.77Z" style="fill:rgb(162,229,228);"/>
            </g>
            <g transform="matrix(1.01031,0.0573259,-0.0857511,1.51128,2230.67,-868.969)">
                <path d="M1238.74,2453.16L485.241,2453.16L485.241,2548.27L1138.86,2548.27L1238.74,2453.16Z" style="fill:rgb(162,229,228);"/>
            </g>
            <g transform="matrix(0.634409,-0.0354689,0.0844977,1.51135,226.76,-759.739)">
                <path d="M1238.74,2453.16L492.614,2453.16C492.614,2453.16 620.398,2536.02 638.123,2547.51C639.389,2548.33 641.555,2548.83 643.878,2548.82C694.25,2548.78 1238.74,2548.27 1238.74,2548.27L1238.74,2453.16Z" style="fill:rgb(162,229,228);"/>
            </g>
        </g>
    </g>
</svg>
